<svg width="40" height="16" viewBox="0 0 40 16" fill="none" xmlns="http://www.w3.org/2000/svg">
<path d="M13.7456 4.49268C14.1186 3.94954 14.7353 3.625 15.3942 3.625H37.2641C38.2964 3.625 39.0201 4.64339 38.6807 5.61824L36.3422 12.3346C36.0623 13.1384 35.3044 13.677 34.4534 13.677H7.43745L13.7456 4.49268Z" fill="url(#paint0_linear_15615_115617)"/>
<path d="M17.0253 11.5993C16.3701 11.5993 15.8689 11.4733 15.5217 11.2213C15.1801 10.9693 15.0093 10.5913 15.0093 10.0873C15.0093 10.0145 15.0149 9.93332 15.0261 9.84373C15.0373 9.74853 15.0569 9.63093 15.0849 9.49093H16.5213C16.4989 9.60293 16.4849 9.69253 16.4793 9.75973C16.4737 9.82693 16.4709 9.88013 16.4709 9.91932C16.4709 10.0929 16.5185 10.2217 16.6137 10.3057C16.7145 10.3841 16.8713 10.4233 17.0841 10.4233C17.3249 10.4233 17.5237 10.3477 17.6805 10.1965C17.8429 10.0453 17.9521 9.81293 18.0081 9.49933L18.6717 5.72775H20.1753L19.5117 9.53293C19.4277 10.0145 19.2737 10.4093 19.0497 10.7173C18.8313 11.0197 18.5513 11.2437 18.2097 11.3893C17.8681 11.5293 17.4733 11.5993 17.0253 11.5993Z" fill="#5E2878"/>
<path d="M22.1147 11.4985L22.5179 9.21373L20.8715 5.72775H22.4927L23.4587 7.89494H23.5007L25.189 5.72775H26.8774L24.0215 9.21373L23.6183 11.4985H22.1147Z" fill="#5E2878"/>
<path d="M26.5366 11.4985L26.7886 10.0957H28.2418L27.9898 11.4985H26.5366Z" fill="#5E2878"/>
<path d="M31.336 11.5993C30.86 11.5993 30.4652 11.5405 30.1516 11.4229C29.8436 11.3053 29.6112 11.1401 29.4544 10.9273C29.2976 10.7145 29.2192 10.4709 29.2192 10.1965C29.2192 10.1405 29.222 10.0761 29.2276 10.0033C29.2388 9.93052 29.2556 9.84653 29.278 9.75133H30.5548C30.5436 9.81293 30.5352 9.86333 30.5296 9.90252C30.524 9.94172 30.5212 9.97812 30.5212 10.0117C30.5212 10.2021 30.5912 10.3477 30.7312 10.4485C30.8768 10.5437 31.0784 10.5913 31.336 10.5913C31.5488 10.5913 31.7364 10.5521 31.8988 10.4737C32.0612 10.3953 32.1872 10.2833 32.2768 10.1377C32.372 9.98652 32.4196 9.80453 32.4196 9.59173C32.4196 9.45173 32.3888 9.34253 32.3272 9.26413C32.2656 9.18013 32.1816 9.12133 32.0752 9.08773C31.9744 9.05413 31.8596 9.03733 31.7308 9.03733H31.1848L31.3444 8.08814H31.84C31.9576 8.08814 32.0668 8.06854 32.1676 8.02934C32.274 7.99014 32.3692 7.93414 32.4532 7.86134C32.5372 7.78294 32.6016 7.69054 32.6464 7.58414C32.6912 7.47214 32.7136 7.34614 32.7136 7.20614C32.7136 7.08854 32.6856 6.98774 32.6296 6.90374C32.5792 6.81975 32.5008 6.75535 32.3944 6.71055C32.2936 6.66015 32.1704 6.63495 32.0248 6.63495C31.8512 6.63495 31.7 6.66575 31.5712 6.72735C31.4424 6.78335 31.336 6.86175 31.252 6.96254C31.1736 7.06334 31.1232 7.17814 31.1008 7.30694L31.084 7.41614H29.8408L29.8744 7.22294C29.9304 6.91495 30.0564 6.64055 30.2524 6.39975C30.454 6.15895 30.7172 5.97135 31.042 5.83695C31.3724 5.69695 31.7504 5.62695 32.176 5.62695C32.5848 5.62695 32.9348 5.68295 33.226 5.79495C33.5172 5.90695 33.7384 6.06655 33.8896 6.27375C34.0464 6.47535 34.1248 6.71615 34.1248 6.99614C34.1248 7.24814 34.0744 7.47494 33.9736 7.67654C33.8728 7.87254 33.7356 8.03774 33.562 8.17214C33.3884 8.30654 33.2008 8.41014 32.9992 8.48293L32.9908 8.51653C33.2372 8.60613 33.4304 8.75173 33.5704 8.95333C33.716 9.14933 33.7888 9.39293 33.7888 9.68413C33.7888 10.0929 33.6796 10.4401 33.4612 10.7257C33.2428 11.0113 32.946 11.2297 32.5708 11.3809C32.1956 11.5265 31.784 11.5993 31.336 11.5993Z" fill="#5E2878"/>
<path d="M7.53862 3.69241V1L10.0515 2.61545L7.53862 3.69241Z" fill="url(#paint1_linear_15615_115617)"/>
<path d="M7.53862 3.69241V1L5.0257 2.61545L7.53862 3.69241Z" fill="url(#paint2_linear_15615_115617)"/>
<path d="M11.0567 3.1543L7.53862 4.76975V6.92368L12.5645 4.23126L11.0567 3.1543Z" fill="url(#paint3_linear_15615_115617)"/>
<path d="M4.02053 3.1543L7.53862 4.76975V6.92368L2.51278 4.23126L4.02053 3.1543Z" fill="url(#paint4_linear_15615_115617)"/>
<path d="M7.53876 8.00043L1.50775 4.76953L0 5.8465L7.53876 10.1544V8.00043Z" fill="url(#paint5_linear_15615_115617)"/>
<path d="M7.53848 8.00043L13.5695 4.76953L15.0772 5.8465L7.53848 10.1544V8.00043Z" fill="url(#paint6_linear_15615_115617)"/>
<path d="M7.53876 14.9999V10.1536L0 5.8457L7.53876 14.9999Z" fill="url(#paint7_linear_15615_115617)"/>
<path d="M7.53848 14.9999V10.1536L15.0772 5.8457L7.53848 14.9999Z" fill="url(#paint8_linear_15615_115617)"/>
<defs>
<linearGradient id="paint0_linear_15615_115617" x1="23.6245" y1="14.5624" x2="15.3121" y2="3.625" gradientUnits="userSpaceOnUse">
<stop stop-color="#D5AAFF"/>
<stop offset="0.291667" stop-color="#E0C0FF"/>
<stop offset="1" stop-color="#F4E9FF"/>
</linearGradient>
<linearGradient id="paint1_linear_15615_115617" x1="7.16168" y1="3.26163" x2="9.2139" y2="1.83764" gradientUnits="userSpaceOnUse">
<stop stop-color="#B265FF"/>
<stop offset="1" stop-color="#E5C4FF"/>
</linearGradient>
<linearGradient id="paint2_linear_15615_115617" x1="7.53862" y1="2.25646" x2="5.86334" y2="1.83764" gradientUnits="userSpaceOnUse">
<stop stop-color="#C984FF"/>
<stop offset="1" stop-color="#E8CBFF"/>
</linearGradient>
<linearGradient id="paint3_linear_15615_115617" x1="7.53862" y1="5.60668" x2="11.7268" y2="3.51258" gradientUnits="userSpaceOnUse">
<stop stop-color="#9948FF"/>
<stop offset="1" stop-color="#CA86FF"/>
</linearGradient>
<linearGradient id="paint4_linear_15615_115617" x1="3.35042" y1="3.51258" x2="7.53862" y2="5.60668" gradientUnits="userSpaceOnUse">
<stop stop-color="#D49EFF"/>
<stop offset="1" stop-color="#B77EFF"/>
</linearGradient>
<linearGradient id="paint5_linear_15615_115617" x1="0.83764" y1="5.60717" x2="7.53876" y2="8.95773" gradientUnits="userSpaceOnUse">
<stop stop-color="#CA86FF"/>
<stop offset="1" stop-color="#B469FF"/>
</linearGradient>
<linearGradient id="paint6_linear_15615_115617" x1="7.53848" y1="8.95773" x2="14.2396" y2="5.18835" gradientUnits="userSpaceOnUse">
<stop stop-color="#9122FF"/>
<stop offset="1" stop-color="#E5C5FF"/>
</linearGradient>
<linearGradient id="paint7_linear_15615_115617" x1="5.02584" y1="8.85311" x2="7.53876" y2="14.1931" gradientUnits="userSpaceOnUse">
<stop stop-color="#9420EF"/>
<stop offset="1" stop-color="#DBBFFF"/>
</linearGradient>
<linearGradient id="paint8_linear_15615_115617" x1="10.4702" y1="11.4703" x2="8.66929" y2="9.66956" gradientUnits="userSpaceOnUse">
<stop stop-color="#D2B7FF"/>
<stop offset="1" stop-color="#9D2FF2"/>
</linearGradient>
</defs>
</svg>
